# xmcd CD database file
#
# Track frame offsets:
#	150
#	18587
#	36375
#	52262
#	69225
#	84612
#	101250
#	120837
#	142575
#	159037
#	179487
#	196412
#	212875
#	232962
#	245762
#	258212
#	278450
#	295500
#
# Disc length: 4217 seconds
#
# Revision: 0
# Processed by: cddbd v1.5PL3 Copyright (c) Steve Scherf et al.
# Submitted via: CDex 1.50Beta7
#
DISCID=ee107712
DTITLE=Procol Harum - Procol Harum Best Collection
DYEAR=1900
DGENRE=Rock
TTITLE0=A Whiter Shade of Pale
TTITLE1=Homburg
TTITLE2=Shine on Brightly
TTITLE3=All This And More
TTITLE4=She Wandered Through The Garden Fence
TTITLE5=Too Much Between Us
TTITLE6=The Dead Man's Dream
TTITLE7=A Christmas Camel
TTITLE8=Quite Rigtly So
TTITLE9=Whisky Train
TTITLE10=Wreck of The Hesperus
TTITLE11=Salad Days
TTITLE12=Boredam
TTITLE13=Magdalene
TTITLE14=Barnyard Story
TTITLE15=Pilgrims Progress
TTITLE16=Skip Softly
TTITLE17=A Salty Dog
EXTD=
EXTT0=
EXTT1=
EXTT2=
EXTT3=
EXTT4=
EXTT5=
EXTT6=
EXTT7=
EXTT8=
EXTT9=
EXTT10=
EXTT11=
EXTT12=
EXTT13=
EXTT14=
EXTT15=
EXTT16=
EXTT17=
PLAYORDER=
